<svg width="598" height="393" viewBox="0 0 598 393" fill="none" xmlns="http://www.w3.org/2000/svg">
<path d="M0.8 55.4H101.24V68.24H0.8V55.4ZM42.92 41.24H58.88V58.16H42.92V41.24ZM11.96 75.8H89.12V111.68H73.16V88.4H11.96V75.8ZM13.64 3.32H29.36V13.16H72.68V3.32H88.52V46.28H13.64V3.32ZM29.36 25.04V33.8H72.68V25.04H29.36ZM135.671 10.88H148.631V17.96C148.631 38.24 138.671 56.36 117.071 62.96L109.271 50.36C127.751 44.72 135.671 31.28 135.671 17.96V10.88ZM138.791 10.88H151.871V17.84C151.871 30.2 159.431 42.92 177.431 48.2L169.991 60.56C148.751 54.44 138.791 37.04 138.791 17.84V10.88ZM113.471 6.55999H173.591V19.28H113.471V6.55999ZM182.711 0.559999H198.671V61.88H182.711V0.559999ZM194.231 24.08H213.431V37.16H194.231V24.08ZM126.071 66.32H141.911V76.16H182.831V66.32H198.671V110.48H126.071V66.32ZM141.911 88.4V97.88H182.831V88.4H141.911ZM293.101 0.679997H309.061V83.72H293.101V0.679997ZM304.501 34.52H323.821V47.6H304.501V34.52ZM221.581 12.2H286.981V24.68H221.581V12.2ZM254.341 28.64C270.301 28.64 281.581 37.4 281.581 50.12C281.581 62.84 270.301 71.48 254.341 71.48C238.261 71.48 226.981 62.84 226.981 50.12C226.981 37.4 238.261 28.64 254.341 28.64ZM254.341 40.76C247.261 40.76 242.341 44.12 242.341 50.12C242.341 56.12 247.261 59.36 254.341 59.36C261.421 59.36 266.341 56.12 266.341 50.12C266.341 44.12 261.421 40.76 254.341 40.76ZM246.301 0.439993H262.261V18.32H246.301V0.439993ZM237.421 97.04H313.021V109.76H237.421V97.04ZM237.421 77.48H253.381V102.56H237.421V77.48ZM359.598 47.24H367.278C383.358 47.24 393.678 46.88 405.918 44.72L407.358 57.56C394.638 59.6 383.838 59.96 367.278 59.96H359.598V47.24ZM359.598 6.68H403.398V19.28H374.958V56.6H359.598V6.68ZM370.398 27.08H402.198V39.2H370.398V27.08ZM435.438 0.679997H450.558V63.68H435.438V0.679997ZM422.478 25.52H440.118V38.36H422.478V25.52ZM411.678 2.71999H426.558V62.96H411.678V2.71999ZM375.198 67.52H390.918V76.64H434.958V67.52H450.558V110.48H375.198V67.52ZM390.918 88.76V97.76H434.958V88.76H390.918ZM516.549 2.11999C541.869 2.11999 556.749 8.84 556.749 21.08C556.749 33.32 541.869 40.04 516.549 40.04C491.109 40.04 476.349 33.32 476.349 21.08C476.349 8.84 491.109 2.11999 516.549 2.11999ZM516.549 13.76C500.469 13.76 492.909 16.16 492.909 21.08C492.909 26.24 500.469 28.4 516.549 28.4C532.629 28.4 540.189 26.24 540.189 21.08C540.189 16.16 532.629 13.76 516.549 13.76ZM466.269 45.2H566.709V57.8H466.269V45.2ZM477.789 64.04H554.589V92.6H493.629V102.44H477.909V81.56H538.869V75.92H477.789V64.04ZM477.909 98.96H557.469V110.96H477.909V98.96ZM76.64 145.56H92.36V256.68H76.64V145.56ZM83.72 186.6H103.28V199.68H83.72V186.6ZM1.4 155.64H14.48V181.2H21.08V155.64H33.92V231H1.4V155.64ZM14.48 193.68V218.16H21.08V193.68H14.48ZM38.24 155.64H51.08V181.2H57.8V155.64H70.88V231H38.24V155.64ZM51.08 193.68V218.16H57.8V193.68H51.08ZM111.311 231.12H211.871V244.2H111.311V231.12ZM122.591 153H200.591V190.08H138.671V208.68H122.831V177.6H184.751V165.72H122.591V153ZM122.831 202.44H203.111V215.16H122.831V202.44ZM302.101 145.56H317.341V256.68H302.101V145.56ZM258.061 188.16H281.821V200.76H258.061V188.16ZM278.701 147.96H293.581V251.76H278.701V147.96ZM254.461 158.64H269.821C269.821 190.32 260.341 215.52 229.141 233.64L220.141 222.48C245.461 207.24 254.461 188.76 254.461 161.88V158.64ZM226.381 158.64H259.501V171.36H226.381V158.64ZM416.118 172.44H437.238V185.4H416.118V172.44ZM432.918 145.56H448.878V211.56H432.918V145.56ZM411.198 213.96C434.718 213.96 449.238 222 449.238 235.44C449.238 249 434.718 256.8 411.198 256.8C387.678 256.8 373.158 249 373.158 235.44C373.158 222 387.678 213.96 411.198 213.96ZM411.198 226.08C396.798 226.08 389.118 229.08 389.118 235.44C389.118 241.68 396.798 244.68 411.198 244.68C425.718 244.68 433.398 241.68 433.398 235.44C433.398 229.08 425.718 226.08 411.198 226.08ZM381.558 156.72H394.518V163.68C394.518 184.92 384.678 204.36 363.438 211.56L355.278 198.96C373.638 192.72 381.558 177.96 381.558 163.68V156.72ZM384.918 156.72H397.758V163.68C397.758 176.76 405.318 190.32 422.838 196.2L415.038 208.8C394.398 201.96 384.918 183.48 384.918 163.68V156.72ZM359.598 152.28H419.358V165H359.598V152.28ZM542.829 145.44H558.789V256.92H542.829V145.44ZM472.269 218.04H482.109C501.789 218.04 517.509 217.32 535.149 214.32L536.709 227.16C518.709 230.4 502.389 231 482.109 231H472.269V218.04ZM472.149 154.92H524.589V197.88H488.469V222.84H472.269V185.28H508.269V167.64H472.149V154.92ZM597.257 234.068L596.064 238.841C595.126 242.932 593.82 246.838 592.143 250.56C590.467 254.31 588.805 257.634 587.158 260.531C585.51 263.457 584.217 265.716 583.28 267.307H568.791C569.445 265.83 570.439 263.585 571.774 260.574C573.109 257.563 574.445 254.153 575.78 250.347C577.115 246.54 578.081 242.705 578.678 238.841L579.53 234.068H597.257ZM5.03409 322.818L8.27273 303.727H84.125L80.8864 322.818H54.6364L43.3864 391H20.0341L31.2841 322.818H5.03409ZM88.0561 392.023C83.9084 392.023 80.343 391.341 77.3601 389.977C74.4055 388.585 72.2464 386.483 70.8828 383.67C69.5476 380.83 69.2493 377.25 69.9879 372.932C70.5845 369.352 71.7067 366.298 73.3544 363.77C75.0021 361.241 77.0476 359.168 79.4908 357.548C81.9339 355.929 84.6754 354.693 87.7152 353.841C90.7834 352.96 94.022 352.392 97.4311 352.136C101.124 351.852 104.121 351.497 106.423 351.071C108.724 350.645 110.442 350.062 111.579 349.324C112.715 348.585 113.397 347.591 113.624 346.341V346.17C113.88 344.466 113.425 343.159 112.261 342.25C111.124 341.341 109.533 340.886 107.488 340.886C105.272 340.886 103.354 341.369 101.735 342.335C100.144 343.301 99.0504 344.807 98.4538 346.852H76.8061C77.7152 342.875 79.576 339.21 82.3885 335.858C85.2294 332.477 88.9936 329.778 93.6811 327.761C98.397 325.716 104.022 324.693 110.556 324.693C115.215 324.693 119.306 325.247 122.829 326.355C126.352 327.435 129.263 328.955 131.565 330.915C133.894 332.847 135.528 335.119 136.465 337.733C137.431 340.318 137.658 343.131 137.147 346.17L129.647 391H107.658L109.192 381.795H108.681C106.977 384.239 105.059 386.213 102.928 387.719C100.826 389.224 98.5249 390.318 96.0249 391C93.5533 391.682 90.897 392.023 88.0561 392.023ZM98.2834 377.193C100.045 377.193 101.778 376.824 103.482 376.085C105.187 375.347 106.65 374.281 107.871 372.889C109.093 371.497 109.874 369.807 110.215 367.818L111.067 362.364C110.442 362.619 109.746 362.861 108.979 363.088C108.241 363.287 107.46 363.486 106.636 363.685C105.84 363.884 104.988 364.068 104.079 364.239C103.198 364.409 102.289 364.58 101.352 364.75C99.4766 365.034 97.8999 365.503 96.6214 366.156C95.343 366.781 94.3487 367.562 93.6385 368.5C92.9283 369.409 92.4879 370.432 92.3175 371.568C92.0618 373.358 92.4737 374.75 93.5533 375.744C94.6612 376.71 96.2379 377.193 98.2834 377.193ZM140.545 391L155.034 303.727H178.557L173.102 336.966H173.443C174.636 334.75 176.213 332.719 178.173 330.872C180.134 328.997 182.435 327.506 185.077 326.398C187.719 325.261 190.659 324.693 193.898 324.693C198.216 324.693 202.122 325.844 205.616 328.145C209.139 330.446 211.71 334.068 213.33 339.011C214.977 343.955 215.148 350.375 213.841 358.273C212.591 365.83 210.375 372.094 207.193 377.065C204.011 382.037 200.261 385.744 195.943 388.188C191.625 390.631 187.136 391.852 182.477 391.852C179.409 391.852 176.753 391.355 174.509 390.361C172.293 389.338 170.489 387.96 169.097 386.227C167.733 384.466 166.795 382.477 166.284 380.261H165.602L163.898 391H140.545ZM169.011 358.273C168.5 361.455 168.472 364.21 168.926 366.54C169.381 368.841 170.276 370.631 171.611 371.909C172.946 373.159 174.693 373.784 176.852 373.784C179.011 373.784 180.957 373.173 182.69 371.952C184.423 370.702 185.886 368.926 187.08 366.625C188.273 364.295 189.125 361.511 189.636 358.273C190.148 355.034 190.19 352.264 189.764 349.963C189.338 347.634 188.472 345.858 187.165 344.636C185.858 343.386 184.125 342.761 181.966 342.761C179.807 342.761 177.847 343.386 176.085 344.636C174.324 345.858 172.832 347.634 171.611 349.963C170.389 352.264 169.523 355.034 169.011 358.273ZM232.378 303.727H261.866L273.969 353.159H274.991L303.457 303.727H332.946L318.457 391H295.276L303.628 340.545H302.946L275.332 390.318H261.355L250.276 340.205H249.594L241.071 391H217.889L232.378 303.727ZM348.095 392.023C343.947 392.023 340.382 391.341 337.399 389.977C334.445 388.585 332.286 386.483 330.922 383.67C329.587 380.83 329.288 377.25 330.027 372.932C330.624 369.352 331.746 366.298 333.393 363.77C335.041 361.241 337.087 359.168 339.53 357.548C341.973 355.929 344.714 354.693 347.754 353.841C350.822 352.96 354.061 352.392 357.47 352.136C361.163 351.852 364.161 351.497 366.462 351.071C368.763 350.645 370.482 350.062 371.618 349.324C372.754 348.585 373.436 347.591 373.663 346.341V346.17C373.919 344.466 373.464 343.159 372.3 342.25C371.163 341.341 369.572 340.886 367.527 340.886C365.311 340.886 363.393 341.369 361.774 342.335C360.183 343.301 359.089 344.807 358.493 346.852H336.845C337.754 342.875 339.615 339.21 342.428 335.858C345.268 332.477 349.033 329.778 353.72 327.761C358.436 325.716 364.061 324.693 370.595 324.693C375.254 324.693 379.345 325.247 382.868 326.355C386.391 327.435 389.303 328.955 391.604 330.915C393.933 332.847 395.567 335.119 396.504 337.733C397.47 340.318 397.697 343.131 397.186 346.17L389.686 391H367.697L369.232 381.795H368.72C367.016 384.239 365.098 386.213 362.967 387.719C360.865 389.224 358.564 390.318 356.064 391C353.592 391.682 350.936 392.023 348.095 392.023ZM358.322 377.193C360.084 377.193 361.817 376.824 363.521 376.085C365.226 375.347 366.689 374.281 367.911 372.889C369.132 371.497 369.913 369.807 370.254 367.818L371.107 362.364C370.482 362.619 369.786 362.861 369.018 363.088C368.28 363.287 367.499 363.486 366.675 363.685C365.879 363.884 365.027 364.068 364.118 364.239C363.237 364.409 362.328 364.58 361.391 364.75C359.516 365.034 357.939 365.503 356.661 366.156C355.382 366.781 354.388 367.562 353.678 368.5C352.967 369.409 352.527 370.432 352.357 371.568C352.101 373.358 352.513 374.75 353.592 375.744C354.7 376.71 356.277 377.193 358.322 377.193ZM400.925 391L411.835 325.545H434.675L432.63 337.989H433.312C435.272 333.386 437.729 330.02 440.684 327.889C443.638 325.759 446.863 324.693 450.357 324.693C451.38 324.693 452.36 324.778 453.298 324.949C454.263 325.091 455.215 325.29 456.153 325.545L452.744 345.659C451.636 345.233 450.258 344.935 448.61 344.764C446.962 344.565 445.499 344.466 444.221 344.466C441.948 344.466 439.817 344.991 437.829 346.043C435.869 347.065 434.192 348.514 432.8 350.389C431.437 352.236 430.528 354.409 430.073 356.909L424.448 391H400.925ZM476.65 375.489L481.423 347.534H484.491L504.093 325.545H530.513L498.298 359.807H491.65L476.65 375.489ZM452.957 391L467.445 303.727H490.968L476.479 391H452.957ZM493.354 391L482.616 365.091L500.854 348.386L520.286 391H493.354Z" fill="#1D1E5A"/>
</svg>
