<svg width="307" height="52" viewBox="0 0 307 52" fill="none" xmlns="http://www.w3.org/2000/svg">
<path d="M0.269887 11.2273L2.15909 0.0909076H46.4062L44.517 11.2273H29.2045L22.642 51H9.01989L15.5824 11.2273H0.269887ZM48.6994 51.5966C46.2799 51.5966 44.2001 51.1989 42.46 50.4034C40.7366 49.5914 39.4771 48.3651 38.6816 46.7244C37.9028 45.0672 37.7288 42.9792 38.1596 40.4602C38.5076 38.3722 39.1622 36.5907 40.1234 35.1158C41.0846 33.6409 42.2778 32.4311 43.7029 31.4865C45.1281 30.5419 46.7273 29.821 48.5005 29.3239C50.2903 28.8101 52.1795 28.4787 54.1681 28.3295C56.3225 28.1638 58.0708 27.9567 59.4132 27.7081C60.7555 27.4595 61.7581 27.1198 62.421 26.6889C63.0839 26.258 63.4816 25.678 63.6142 24.9489V24.8494C63.7633 23.8551 63.4982 23.0928 62.8187 22.5625C62.1558 22.0322 61.2278 21.767 60.0346 21.767C58.742 21.767 57.6234 22.0488 56.6788 22.6122C55.7508 23.1757 55.1127 24.054 54.7647 25.2472H42.1369C42.6672 22.9271 43.7527 20.7893 45.3933 18.8338C47.0505 16.8617 49.2463 15.2874 51.9806 14.1108C54.7316 12.9176 58.0128 12.321 61.8244 12.321C64.5422 12.321 66.9286 12.6442 68.9835 13.2905C71.0384 13.9202 72.737 14.8068 74.0794 15.9503C75.4383 17.0772 76.3912 18.4029 76.938 19.9276C77.5015 21.4356 77.6341 23.0762 77.3358 24.8494L72.9608 51H60.1341L61.0289 45.6307H60.7306C59.7363 47.0559 58.6177 48.2076 57.3748 49.0859C56.1485 49.9643 54.8062 50.6023 53.3478 51C51.9061 51.3977 50.3566 51.5966 48.6994 51.5966ZM54.6653 42.946C55.6928 42.946 56.7037 42.7306 57.698 42.2997C58.6923 41.8688 59.5458 41.2474 60.2583 40.4354C60.9709 39.6233 61.4267 38.6373 61.6255 37.4773L62.1227 34.2955C61.7581 34.4446 61.3521 34.5855 60.9047 34.718C60.4738 34.834 60.0181 34.95 59.5375 35.0661C59.0734 35.1821 58.5763 35.2898 58.046 35.3892C57.5323 35.4886 57.002 35.5881 56.4551 35.6875C55.3613 35.8532 54.4416 36.1267 53.6958 36.5078C52.9501 36.8724 52.3701 37.3281 51.9558 37.875C51.5415 38.4053 51.2846 39.0019 51.1852 39.6648C51.036 40.7088 51.2763 41.5208 51.9061 42.1009C52.5524 42.6643 53.4721 42.946 54.6653 42.946ZM79.3182 51L87.7699 0.0909076H101.491L98.3097 19.4801H98.5085C99.2045 18.1875 100.124 17.0026 101.268 15.9254C102.411 14.8317 103.754 13.9616 105.295 13.3153C106.836 12.6525 108.551 12.321 110.44 12.321C112.959 12.321 115.238 12.9922 117.276 14.3345C119.331 15.6768 120.831 17.7898 121.776 20.6733C122.737 23.5568 122.836 27.3021 122.074 31.9091C121.345 36.3172 120.052 39.9714 118.196 42.8714C116.34 45.7715 114.152 47.9342 111.634 49.3594C109.115 50.7846 106.496 51.4972 103.778 51.4972C101.989 51.4972 100.439 51.2071 99.13 50.6271C97.8374 50.0305 96.785 49.2268 95.973 48.2159C95.1776 47.1884 94.6307 46.0284 94.3324 44.7358H93.9347L92.9403 51H79.3182ZM95.9233 31.9091C95.625 33.7652 95.6084 35.3726 95.8736 36.7315C96.1387 38.0739 96.6607 39.1179 97.4396 39.8636C98.2185 40.5928 99.2377 40.9574 100.497 40.9574C101.757 40.9574 102.892 40.6011 103.903 39.8885C104.914 39.1593 105.767 38.1236 106.463 36.7812C107.159 35.4223 107.656 33.7983 107.955 31.9091C108.253 30.0199 108.278 28.4041 108.029 27.0618C107.781 25.7029 107.275 24.6671 106.513 23.9545C105.75 23.2254 104.74 22.8608 103.48 22.8608C102.221 22.8608 101.077 23.2254 100.05 23.9545C99.0223 24.6671 98.1522 25.7029 97.4396 27.0618C96.727 28.4041 96.2216 30.0199 95.9233 31.9091ZM132.887 0.0909076H150.089L157.148 28.9261H157.745L174.35 0.0909076H191.552L183.1 51H169.577L174.45 21.5682H174.052L157.944 50.6023H149.79L143.327 21.3693H142.93L137.958 51H124.435L132.887 0.0909076ZM200.389 51.5966C197.969 51.5966 195.89 51.1989 194.15 50.4034C192.426 49.5914 191.167 48.3651 190.371 46.7244C189.592 45.0672 189.418 42.9792 189.849 40.4602C190.197 38.3722 190.852 36.5907 191.813 35.1158C192.774 33.6409 193.967 32.4311 195.392 31.4865C196.818 30.5419 198.417 29.821 200.19 29.3239C201.98 28.8101 203.869 28.4787 205.858 28.3295C208.012 28.1638 209.76 27.9567 211.103 27.7081C212.445 27.4595 213.448 27.1198 214.11 26.6889C214.773 26.258 215.171 25.678 215.304 24.9489V24.8494C215.453 23.8551 215.188 23.0928 214.508 22.5625C213.845 22.0322 212.917 21.767 211.724 21.767C210.431 21.767 209.313 22.0488 208.368 22.6122C207.44 23.1757 206.802 24.054 206.454 25.2472H193.826C194.357 22.9271 195.442 20.7893 197.083 18.8338C198.74 16.8617 200.936 15.2874 203.67 14.1108C206.421 12.9176 209.702 12.321 213.514 12.321C216.232 12.321 218.618 12.6442 220.673 13.2905C222.728 13.9202 224.426 14.8068 225.769 15.9503C227.128 17.0772 228.081 18.4029 228.627 19.9276C229.191 21.4356 229.324 23.0762 229.025 24.8494L224.65 51H211.824L212.718 45.6307H212.42C211.426 47.0559 210.307 48.2076 209.064 49.0859C207.838 49.9643 206.496 50.6023 205.037 51C203.596 51.3977 202.046 51.5966 200.389 51.5966ZM206.355 42.946C207.382 42.946 208.393 42.7306 209.387 42.2997C210.382 41.8688 211.235 41.2474 211.948 40.4354C212.66 39.6233 213.116 38.6373 213.315 37.4773L213.812 34.2955C213.448 34.4446 213.042 34.5855 212.594 34.718C212.163 34.834 211.708 34.95 211.227 35.0661C210.763 35.1821 210.266 35.2898 209.735 35.3892C209.222 35.4886 208.691 35.5881 208.145 35.6875C207.051 35.8532 206.131 36.1267 205.385 36.5078C204.64 36.8724 204.06 37.3281 203.645 37.875C203.231 38.4053 202.974 39.0019 202.875 39.6648C202.725 40.7088 202.966 41.5208 203.596 42.1009C204.242 42.6643 205.162 42.946 206.355 42.946ZM231.206 51L237.57 12.8182H250.894L249.701 20.0767H250.099C251.242 17.392 252.675 15.4283 254.399 14.1854C256.122 12.9425 258.003 12.321 260.042 12.321C260.638 12.321 261.21 12.3707 261.757 12.4702C262.32 12.553 262.876 12.669 263.422 12.8182L261.434 24.5511C260.787 24.3026 259.984 24.1286 259.023 24.0291C258.061 23.9131 257.208 23.8551 256.462 23.8551C255.136 23.8551 253.894 24.1617 252.733 24.7749C251.59 25.3714 250.612 26.2166 249.8 27.3104C249.005 28.3875 248.474 29.6553 248.209 31.1136L244.928 51H231.206ZM275.379 41.9517L278.163 25.6449H279.953L291.388 12.8182H306.8L288.007 32.804H284.129L275.379 41.9517ZM261.558 51L270.01 0.0909076H283.731L275.28 51H261.558ZM285.123 51L278.859 35.8864L289.498 26.142L300.834 51H285.123Z" fill="#1D1E5A"/>
</svg>
